<svg width="23" height="25" viewBox="0 0 23 25" fill="none" xmlns="http://www.w3.org/2000/svg">
<path d="M11.85 5.84513C11.8538 6.04516 11.7416 6.22974 11.5611 6.32029L6.81863 8.7C6.65763 8.78079 6.46603 8.77463 6.31068 8.68367L6.22197 8.63173C6.05763 8.5355 5.9587 8.35902 5.96329 8.17026L6.02486 5.63728L5.97892 3.04195C5.9755 2.84861 6.08053 2.66925 6.25183 2.57588L10.8591 0.0648523C10.9909 -0.00700608 11.1475 -0.0197917 11.2895 0.0297114L11.3963 0.0669244C11.6039 0.139318 11.7443 0.331507 11.7484 0.549113L11.85 5.84513Z" fill="black"/>
<path d="M17.4786 9.42496C17.3061 9.52962 17.0883 9.52759 16.9178 9.41973L12.4385 6.58516C12.2865 6.48893 12.1947 6.32255 12.1953 6.14407L12.1956 6.04216C12.1962 5.85335 12.2999 5.67958 12.4669 5.5878L14.7069 4.3562L16.9467 3.00139C17.1136 2.90046 17.3232 2.89903 17.4915 2.99766L22.0168 5.6504C22.1462 5.72631 22.2368 5.85328 22.2656 5.99935L22.2873 6.10916C22.3294 6.32279 22.233 6.53982 22.0453 6.65369L17.4786 9.42496Z" fill="black"/>
<path d="M17.3888 16.1153C17.21 16.0214 17.1014 15.8347 17.109 15.6348L17.3101 10.3812C17.3169 10.2029 17.4155 10.0403 17.5714 9.95033L17.6604 9.89895C17.8254 9.80374 18.0295 9.80405 18.1942 9.89976L20.4037 11.1841L22.7206 12.4058C22.8932 12.4968 23.0007 12.6747 23 12.868L22.9808 18.0686C22.9802 18.2175 22.9154 18.359 22.8026 18.4576L22.7179 18.5317C22.5529 18.6759 22.3148 18.7037 22.1204 18.6016L17.3888 16.1153Z" fill="black"/>
<path d="M11.2232 19.1739C11.2145 18.9741 11.3222 18.7869 11.5004 18.692L16.1836 16.2001C16.3425 16.1155 16.5342 16.1171 16.6918 16.2043L16.7817 16.2541C16.9483 16.3464 17.0516 16.5205 17.0516 16.7093L17.0517 19.243L17.1609 21.8365C17.169 22.0297 17.0684 22.2115 16.8994 22.3089L12.3547 24.9289C12.2247 25.0039 12.0684 25.0204 11.9252 24.9743L11.8176 24.9397C11.6083 24.8722 11.4633 24.6834 11.4538 24.466L11.2232 19.1739Z" fill="black"/>
<path d="M5.45735 15.6551C5.62722 15.5464 5.84504 15.5432 6.01807 15.647L10.5652 18.3741C10.7195 18.4666 10.8153 18.6308 10.8191 18.8092L10.8212 18.9111C10.8252 19.0999 10.7258 19.2761 10.5611 19.3718L8.35178 20.6564L6.14556 22.0641C5.98121 22.169 5.77166 22.1754 5.60105 22.0808L1.01248 19.5366C0.881165 19.4638 0.787555 19.339 0.755193 19.1937L0.730866 19.0844C0.68354 18.8719 0.774655 18.6526 0.959466 18.5343L5.45735 15.6551Z" fill="black"/>
<path d="M5.63812 8.80217C5.81907 8.8918 5.93224 9.07579 5.92946 9.27583L5.85649 14.5327C5.85401 14.7112 5.75943 14.876 5.60574 14.9697L5.51799 15.0232C5.35541 15.1223 5.15134 15.1268 4.9844 15.0351L2.74423 13.8038L0.398231 12.6376C0.223466 12.5507 0.111635 12.3754 0.107637 12.1821L0.000110439 6.98254C-0.00296664 6.83375 0.0583806 6.69073 0.16872 6.58948L0.251667 6.51336C0.413028 6.36528 0.650423 6.33176 0.847272 6.42926L5.63812 8.80217Z" fill="black"/>
</svg>
